<svg id="ultimate-software-focus" xmlns="http://www.w3.org/2000/svg" width="390.181" height="312.145" viewBox="0 0 390.181 312.145">
  <g id="_2571304844448" data-name=" 2571304844448">
    <path id="路径_3348" data-name="路径 3348" d="M346.42,170h65.187a6.43,6.43,0,0,1,6.429,6.436V241.6a6.43,6.43,0,0,1-6.429,6.434H346.42A6.418,6.418,0,0,1,340,241.6V176.435A6.419,6.419,0,0,1,346.42,170Z" transform="translate(-183.927 -91.963)" fill="#f7b15b"/>
    <path id="路径_3349" data-name="路径 3349" d="M6.42,170H71.607a6.429,6.429,0,0,1,6.43,6.436V241.6a6.429,6.429,0,0,1-6.43,6.434H6.42A6.418,6.418,0,0,1,0,241.6V176.435A6.419,6.419,0,0,1,6.42,170Z" transform="translate(0 -91.963)" fill="#f7b15b"/>
    <path id="路径_3350" data-name="路径 3350" d="M686.42,170h65.187a6.429,6.429,0,0,1,6.43,6.436V241.6a6.429,6.429,0,0,1-6.43,6.434H686.42A6.417,6.417,0,0,1,680,241.6V176.435A6.418,6.418,0,0,1,686.42,170Z" transform="translate(-367.855 -91.963)" fill="#f7b15b"/>
    <path id="路径_3351" data-name="路径 3351" d="M176.421,340h65.186a6.43,6.43,0,0,1,6.429,6.436V411.6a6.43,6.43,0,0,1-6.429,6.436H176.421A6.42,6.42,0,0,1,170,411.6V346.434A6.42,6.42,0,0,1,176.421,340Z" transform="translate(-91.964 -183.926)" fill="#f7b15b"/>
    <path id="路径_3352" data-name="路径 3352" d="M346.42,510h65.187a6.43,6.43,0,0,1,6.429,6.434V581.6a6.431,6.431,0,0,1-6.429,6.434H346.42A6.42,6.42,0,0,1,340,581.6V516.435A6.419,6.419,0,0,1,346.42,510Z" transform="translate(-183.927 -275.892)" fill="#f7b15b"/>
    <path id="路径_3353" data-name="路径 3353" d="M516.421,340h65.187a6.431,6.431,0,0,1,6.429,6.436V411.6a6.431,6.431,0,0,1-6.429,6.436H516.421A6.419,6.419,0,0,1,510,411.6V346.434A6.419,6.419,0,0,1,516.421,340Z" transform="translate(-275.892 -183.926)" fill="#f7b15b"/>
    <path id="路径_3354" data-name="路径 3354" d="M176.421,0h65.186a6.429,6.429,0,0,1,6.429,6.434V71.6a6.429,6.429,0,0,1-6.429,6.434H176.421A6.419,6.419,0,0,1,170,71.6V6.434A6.419,6.419,0,0,1,176.421,0Z" transform="translate(-91.964)" fill="#f7b15b"/>
    <path id="路径_3355" data-name="路径 3355" d="M516.421,0h65.187a6.43,6.43,0,0,1,6.429,6.434V71.6a6.43,6.43,0,0,1-6.429,6.434H516.421A6.418,6.418,0,0,1,510,71.6V6.434A6.418,6.418,0,0,1,516.421,0Z" transform="translate(-275.892)" fill="#f7b15b"/>
  </g>
</svg>